<?xml version="1.0" encoding="utf-8" standalone="no"?>
<!DOCTYPE svg PUBLIC "-//W3C//DTD SVG 1.1//EN"
  "http://www.w3.org/Graphics/SVG/1.1/DTD/svg11.dtd">
<svg xmlns:xlink="http://www.w3.org/1999/xlink" width="388.727894pt" height="244.744673pt" viewBox="0 0 388.727894 244.744673" xmlns="http://www.w3.org/2000/svg" version="1.1">
 <metadata>
  <rdf:RDF xmlns:dc="http://purl.org/dc/elements/1.1/" xmlns:cc="http://creativecommons.org/ns#" xmlns:rdf="http://www.w3.org/1999/02/22-rdf-syntax-ns#">
   <cc:Work>
    <dc:type rdf:resource="http://purl.org/dc/dcmitype/StillImage"/>
    <dc:date>2024-09-07T14:10:39.021014</dc:date>
    <dc:format>image/svg+xml</dc:format>
    <dc:creator>
     <cc:Agent>
      <dc:title>Matplotlib v3.9.2, https://matplotlib.org/</dc:title>
     </cc:Agent>
    </dc:creator>
   </cc:Work>
  </rdf:RDF>
 </metadata>
 <defs>
  <style type="text/css">*{stroke-linejoin: round; stroke-linecap: butt}</style>
 </defs>
 <g id="figure_1">
  <g id="patch_1">
   <path d="M 0 244.744673 
L 388.727894 244.744673 
L 388.727894 0 
L 0 0 
L 0 244.744673 
z
" style="fill: none"/>
  </g>
  <g id="axes_1">
   <g id="patch_2">
    <path d="M 64.1675 203.317173 
L 358.622894 203.317173 
L 358.622894 11.759063 
L 64.1675 11.759063 
L 64.1675 203.317173 
z
" style="fill: none"/>
   </g>
   <g id="matplotlib.axis_1">
    <g id="xtick_1">
     <g id="line2d_1">
      <path d="M 64.1675 203.317173 
L 64.1675 11.759063 
" clip-path="url(#p09e24e4da8)" style="fill: none; stroke-dasharray: 6.4,1.6,1,1.6; stroke-dashoffset: 0; stroke: #808080; stroke-opacity: 0.2"/>
     </g>
     <g id="line2d_2">
      <defs>
       <path id="m72af513a48" d="M 0 0 
L 0 3.5 
" style="stroke: #000000; stroke-width: 0.8"/>
      </defs>
      <g>
       <use xlink:href="#m72af513a48" x="64.1675" y="203.317173" style="stroke: #000000; stroke-width: 0.8"/>
      </g>
     </g>
     <g id="text_1">
      <!-- 0 -->
      <g transform="translate(60.35 219.435298) scale(0.12 -0.12)">
       <defs>
        <path id="DejaVuSans-30" d="M 2034 4250 
Q 1547 4250 1301 3770 
Q 1056 3291 1056 2328 
Q 1056 1369 1301 889 
Q 1547 409 2034 409 
Q 2525 409 2770 889 
Q 3016 1369 3016 2328 
Q 3016 3291 2770 3770 
Q 2525 4250 2034 4250 
z
M 2034 4750 
Q 2819 4750 3233 4129 
Q 3647 3509 3647 2328 
Q 3647 1150 3233 529 
Q 2819 -91 2034 -91 
Q 1250 -91 836 529 
Q 422 1150 422 2328 
Q 422 3509 836 4129 
Q 1250 4750 2034 4750 
z
" transform="scale(0.015625)"/>
       </defs>
       <use xlink:href="#DejaVuSans-30"/>
      </g>
     </g>
    </g>
    <g id="xtick_2">
     <g id="line2d_3">
      <path d="M 123.058579 203.317173 
L 123.058579 11.759063 
" clip-path="url(#p09e24e4da8)" style="fill: none; stroke-dasharray: 6.4,1.6,1,1.6; stroke-dashoffset: 0; stroke: #808080; stroke-opacity: 0.2"/>
     </g>
     <g id="line2d_4">
      <g>
       <use xlink:href="#m72af513a48" x="123.058579" y="203.317173" style="stroke: #000000; stroke-width: 0.8"/>
      </g>
     </g>
     <g id="text_2">
      <!-- 20000 -->
      <g transform="translate(103.971079 219.435298) scale(0.12 -0.12)">
       <defs>
        <path id="DejaVuSans-32" d="M 1228 531 
L 3431 531 
L 3431 0 
L 469 0 
L 469 531 
Q 828 903 1448 1529 
Q 2069 2156 2228 2338 
Q 2531 2678 2651 2914 
Q 2772 3150 2772 3378 
Q 2772 3750 2511 3984 
Q 2250 4219 1831 4219 
Q 1534 4219 1204 4116 
Q 875 4013 500 3803 
L 500 4441 
Q 881 4594 1212 4672 
Q 1544 4750 1819 4750 
Q 2544 4750 2975 4387 
Q 3406 4025 3406 3419 
Q 3406 3131 3298 2873 
Q 3191 2616 2906 2266 
Q 2828 2175 2409 1742 
Q 1991 1309 1228 531 
z
" transform="scale(0.015625)"/>
       </defs>
       <use xlink:href="#DejaVuSans-32"/>
       <use xlink:href="#DejaVuSans-30" x="63.623047"/>
       <use xlink:href="#DejaVuSans-30" x="127.246094"/>
       <use xlink:href="#DejaVuSans-30" x="190.869141"/>
       <use xlink:href="#DejaVuSans-30" x="254.492188"/>
      </g>
     </g>
    </g>
    <g id="xtick_3">
     <g id="line2d_5">
      <path d="M 181.949657 203.317173 
L 181.949657 11.759063 
" clip-path="url(#p09e24e4da8)" style="fill: none; stroke-dasharray: 6.4,1.6,1,1.6; stroke-dashoffset: 0; stroke: #808080; stroke-opacity: 0.2"/>
     </g>
     <g id="line2d_6">
      <g>
       <use xlink:href="#m72af513a48" x="181.949657" y="203.317173" style="stroke: #000000; stroke-width: 0.8"/>
      </g>
     </g>
     <g id="text_3">
      <!-- 40000 -->
      <g transform="translate(162.862157 219.435298) scale(0.12 -0.12)">
       <defs>
        <path id="DejaVuSans-34" d="M 2419 4116 
L 825 1625 
L 2419 1625 
L 2419 4116 
z
M 2253 4666 
L 3047 4666 
L 3047 1625 
L 3713 1625 
L 3713 1100 
L 3047 1100 
L 3047 0 
L 2419 0 
L 2419 1100 
L 313 1100 
L 313 1709 
L 2253 4666 
z
" transform="scale(0.015625)"/>
       </defs>
       <use xlink:href="#DejaVuSans-34"/>
       <use xlink:href="#DejaVuSans-30" x="63.623047"/>
       <use xlink:href="#DejaVuSans-30" x="127.246094"/>
       <use xlink:href="#DejaVuSans-30" x="190.869141"/>
       <use xlink:href="#DejaVuSans-30" x="254.492188"/>
      </g>
     </g>
    </g>
    <g id="xtick_4">
     <g id="line2d_7">
      <path d="M 240.840736 203.317173 
L 240.840736 11.759063 
" clip-path="url(#p09e24e4da8)" style="fill: none; stroke-dasharray: 6.4,1.6,1,1.6; stroke-dashoffset: 0; stroke: #808080; stroke-opacity: 0.2"/>
     </g>
     <g id="line2d_8">
      <g>
       <use xlink:href="#m72af513a48" x="240.840736" y="203.317173" style="stroke: #000000; stroke-width: 0.8"/>
      </g>
     </g>
     <g id="text_4">
      <!-- 60000 -->
      <g transform="translate(221.753236 219.435298) scale(0.12 -0.12)">
       <defs>
        <path id="DejaVuSans-36" d="M 2113 2584 
Q 1688 2584 1439 2293 
Q 1191 2003 1191 1497 
Q 1191 994 1439 701 
Q 1688 409 2113 409 
Q 2538 409 2786 701 
Q 3034 994 3034 1497 
Q 3034 2003 2786 2293 
Q 2538 2584 2113 2584 
z
M 3366 4563 
L 3366 3988 
Q 3128 4100 2886 4159 
Q 2644 4219 2406 4219 
Q 1781 4219 1451 3797 
Q 1122 3375 1075 2522 
Q 1259 2794 1537 2939 
Q 1816 3084 2150 3084 
Q 2853 3084 3261 2657 
Q 3669 2231 3669 1497 
Q 3669 778 3244 343 
Q 2819 -91 2113 -91 
Q 1303 -91 875 529 
Q 447 1150 447 2328 
Q 447 3434 972 4092 
Q 1497 4750 2381 4750 
Q 2619 4750 2861 4703 
Q 3103 4656 3366 4563 
z
" transform="scale(0.015625)"/>
       </defs>
       <use xlink:href="#DejaVuSans-36"/>
       <use xlink:href="#DejaVuSans-30" x="63.623047"/>
       <use xlink:href="#DejaVuSans-30" x="127.246094"/>
       <use xlink:href="#DejaVuSans-30" x="190.869141"/>
       <use xlink:href="#DejaVuSans-30" x="254.492188"/>
      </g>
     </g>
    </g>
    <g id="xtick_5">
     <g id="line2d_9">
      <path d="M 299.731815 203.317173 
L 299.731815 11.759063 
" clip-path="url(#p09e24e4da8)" style="fill: none; stroke-dasharray: 6.4,1.6,1,1.6; stroke-dashoffset: 0; stroke: #808080; stroke-opacity: 0.2"/>
     </g>
     <g id="line2d_10">
      <g>
       <use xlink:href="#m72af513a48" x="299.731815" y="203.317173" style="stroke: #000000; stroke-width: 0.8"/>
      </g>
     </g>
     <g id="text_5">
      <!-- 80000 -->
      <g transform="translate(280.644315 219.435298) scale(0.12 -0.12)">
       <defs>
        <path id="DejaVuSans-38" d="M 2034 2216 
Q 1584 2216 1326 1975 
Q 1069 1734 1069 1313 
Q 1069 891 1326 650 
Q 1584 409 2034 409 
Q 2484 409 2743 651 
Q 3003 894 3003 1313 
Q 3003 1734 2745 1975 
Q 2488 2216 2034 2216 
z
M 1403 2484 
Q 997 2584 770 2862 
Q 544 3141 544 3541 
Q 544 4100 942 4425 
Q 1341 4750 2034 4750 
Q 2731 4750 3128 4425 
Q 3525 4100 3525 3541 
Q 3525 3141 3298 2862 
Q 3072 2584 2669 2484 
Q 3125 2378 3379 2068 
Q 3634 1759 3634 1313 
Q 3634 634 3220 271 
Q 2806 -91 2034 -91 
Q 1263 -91 848 271 
Q 434 634 434 1313 
Q 434 1759 690 2068 
Q 947 2378 1403 2484 
z
M 1172 3481 
Q 1172 3119 1398 2916 
Q 1625 2713 2034 2713 
Q 2441 2713 2670 2916 
Q 2900 3119 2900 3481 
Q 2900 3844 2670 4047 
Q 2441 4250 2034 4250 
Q 1625 4250 1398 4047 
Q 1172 3844 1172 3481 
z
" transform="scale(0.015625)"/>
       </defs>
       <use xlink:href="#DejaVuSans-38"/>
       <use xlink:href="#DejaVuSans-30" x="63.623047"/>
       <use xlink:href="#DejaVuSans-30" x="127.246094"/>
       <use xlink:href="#DejaVuSans-30" x="190.869141"/>
       <use xlink:href="#DejaVuSans-30" x="254.492188"/>
      </g>
     </g>
    </g>
    <g id="xtick_6">
     <g id="line2d_11">
      <path d="M 358.622894 203.317173 
L 358.622894 11.759063 
" clip-path="url(#p09e24e4da8)" style="fill: none; stroke-dasharray: 6.4,1.6,1,1.6; stroke-dashoffset: 0; stroke: #808080; stroke-opacity: 0.2"/>
     </g>
     <g id="line2d_12">
      <g>
       <use xlink:href="#m72af513a48" x="358.622894" y="203.317173" style="stroke: #000000; stroke-width: 0.8"/>
      </g>
     </g>
     <g id="text_6">
      <!-- 100000 -->
      <g transform="translate(335.717894 219.435298) scale(0.12 -0.12)">
       <defs>
        <path id="DejaVuSans-31" d="M 794 531 
L 1825 531 
L 1825 4091 
L 703 3866 
L 703 4441 
L 1819 4666 
L 2450 4666 
L 2450 531 
L 3481 531 
L 3481 0 
L 794 0 
L 794 531 
z
" transform="scale(0.015625)"/>
       </defs>
       <use xlink:href="#DejaVuSans-31"/>
       <use xlink:href="#DejaVuSans-30" x="63.623047"/>
       <use xlink:href="#DejaVuSans-30" x="127.246094"/>
       <use xlink:href="#DejaVuSans-30" x="190.869141"/>
       <use xlink:href="#DejaVuSans-30" x="254.492188"/>
       <use xlink:href="#DejaVuSans-30" x="318.115234"/>
      </g>
     </g>
    </g>
    <g id="text_7">
     <!-- number of samples -->
     <g transform="translate(153.440822 235.049048) scale(0.12 -0.12)">
      <defs>
       <path id="DejaVuSans-6e" d="M 3513 2113 
L 3513 0 
L 2938 0 
L 2938 2094 
Q 2938 2591 2744 2837 
Q 2550 3084 2163 3084 
Q 1697 3084 1428 2787 
Q 1159 2491 1159 1978 
L 1159 0 
L 581 0 
L 581 3500 
L 1159 3500 
L 1159 2956 
Q 1366 3272 1645 3428 
Q 1925 3584 2291 3584 
Q 2894 3584 3203 3211 
Q 3513 2838 3513 2113 
z
" transform="scale(0.015625)"/>
       <path id="DejaVuSans-75" d="M 544 1381 
L 544 3500 
L 1119 3500 
L 1119 1403 
Q 1119 906 1312 657 
Q 1506 409 1894 409 
Q 2359 409 2629 706 
Q 2900 1003 2900 1516 
L 2900 3500 
L 3475 3500 
L 3475 0 
L 2900 0 
L 2900 538 
Q 2691 219 2414 64 
Q 2138 -91 1772 -91 
Q 1169 -91 856 284 
Q 544 659 544 1381 
z
M 1991 3584 
L 1991 3584 
z
" transform="scale(0.015625)"/>
       <path id="DejaVuSans-6d" d="M 3328 2828 
Q 3544 3216 3844 3400 
Q 4144 3584 4550 3584 
Q 5097 3584 5394 3201 
Q 5691 2819 5691 2113 
L 5691 0 
L 5113 0 
L 5113 2094 
Q 5113 2597 4934 2840 
Q 4756 3084 4391 3084 
Q 3944 3084 3684 2787 
Q 3425 2491 3425 1978 
L 3425 0 
L 2847 0 
L 2847 2094 
Q 2847 2600 2669 2842 
Q 2491 3084 2119 3084 
Q 1678 3084 1418 2786 
Q 1159 2488 1159 1978 
L 1159 0 
L 581 0 
L 581 3500 
L 1159 3500 
L 1159 2956 
Q 1356 3278 1631 3431 
Q 1906 3584 2284 3584 
Q 2666 3584 2933 3390 
Q 3200 3197 3328 2828 
z
" transform="scale(0.015625)"/>
       <path id="DejaVuSans-62" d="M 3116 1747 
Q 3116 2381 2855 2742 
Q 2594 3103 2138 3103 
Q 1681 3103 1420 2742 
Q 1159 2381 1159 1747 
Q 1159 1113 1420 752 
Q 1681 391 2138 391 
Q 2594 391 2855 752 
Q 3116 1113 3116 1747 
z
M 1159 2969 
Q 1341 3281 1617 3432 
Q 1894 3584 2278 3584 
Q 2916 3584 3314 3078 
Q 3713 2572 3713 1747 
Q 3713 922 3314 415 
Q 2916 -91 2278 -91 
Q 1894 -91 1617 61 
Q 1341 213 1159 525 
L 1159 0 
L 581 0 
L 581 4863 
L 1159 4863 
L 1159 2969 
z
" transform="scale(0.015625)"/>
       <path id="DejaVuSans-65" d="M 3597 1894 
L 3597 1613 
L 953 1613 
Q 991 1019 1311 708 
Q 1631 397 2203 397 
Q 2534 397 2845 478 
Q 3156 559 3463 722 
L 3463 178 
Q 3153 47 2828 -22 
Q 2503 -91 2169 -91 
Q 1331 -91 842 396 
Q 353 884 353 1716 
Q 353 2575 817 3079 
Q 1281 3584 2069 3584 
Q 2775 3584 3186 3129 
Q 3597 2675 3597 1894 
z
M 3022 2063 
Q 3016 2534 2758 2815 
Q 2500 3097 2075 3097 
Q 1594 3097 1305 2825 
Q 1016 2553 972 2059 
L 3022 2063 
z
" transform="scale(0.015625)"/>
       <path id="DejaVuSans-72" d="M 2631 2963 
Q 2534 3019 2420 3045 
Q 2306 3072 2169 3072 
Q 1681 3072 1420 2755 
Q 1159 2438 1159 1844 
L 1159 0 
L 581 0 
L 581 3500 
L 1159 3500 
L 1159 2956 
Q 1341 3275 1631 3429 
Q 1922 3584 2338 3584 
Q 2397 3584 2469 3576 
Q 2541 3569 2628 3553 
L 2631 2963 
z
" transform="scale(0.015625)"/>
       <path id="DejaVuSans-20" transform="scale(0.015625)"/>
       <path id="DejaVuSans-6f" d="M 1959 3097 
Q 1497 3097 1228 2736 
Q 959 2375 959 1747 
Q 959 1119 1226 758 
Q 1494 397 1959 397 
Q 2419 397 2687 759 
Q 2956 1122 2956 1747 
Q 2956 2369 2687 2733 
Q 2419 3097 1959 3097 
z
M 1959 3584 
Q 2709 3584 3137 3096 
Q 3566 2609 3566 1747 
Q 3566 888 3137 398 
Q 2709 -91 1959 -91 
Q 1206 -91 779 398 
Q 353 888 353 1747 
Q 353 2609 779 3096 
Q 1206 3584 1959 3584 
z
" transform="scale(0.015625)"/>
       <path id="DejaVuSans-66" d="M 2375 4863 
L 2375 4384 
L 1825 4384 
Q 1516 4384 1395 4259 
Q 1275 4134 1275 3809 
L 1275 3500 
L 2222 3500 
L 2222 3053 
L 1275 3053 
L 1275 0 
L 697 0 
L 697 3053 
L 147 3053 
L 147 3500 
L 697 3500 
L 697 3744 
Q 697 4328 969 4595 
Q 1241 4863 1831 4863 
L 2375 4863 
z
" transform="scale(0.015625)"/>
       <path id="DejaVuSans-73" d="M 2834 3397 
L 2834 2853 
Q 2591 2978 2328 3040 
Q 2066 3103 1784 3103 
Q 1356 3103 1142 2972 
Q 928 2841 928 2578 
Q 928 2378 1081 2264 
Q 1234 2150 1697 2047 
L 1894 2003 
Q 2506 1872 2764 1633 
Q 3022 1394 3022 966 
Q 3022 478 2636 193 
Q 2250 -91 1575 -91 
Q 1294 -91 989 -36 
Q 684 19 347 128 
L 347 722 
Q 666 556 975 473 
Q 1284 391 1588 391 
Q 1994 391 2212 530 
Q 2431 669 2431 922 
Q 2431 1156 2273 1281 
Q 2116 1406 1581 1522 
L 1381 1569 
Q 847 1681 609 1914 
Q 372 2147 372 2553 
Q 372 3047 722 3315 
Q 1072 3584 1716 3584 
Q 2034 3584 2315 3537 
Q 2597 3491 2834 3397 
z
" transform="scale(0.015625)"/>
       <path id="DejaVuSans-61" d="M 2194 1759 
Q 1497 1759 1228 1600 
Q 959 1441 959 1056 
Q 959 750 1161 570 
Q 1363 391 1709 391 
Q 2188 391 2477 730 
Q 2766 1069 2766 1631 
L 2766 1759 
L 2194 1759 
z
M 3341 1997 
L 3341 0 
L 2766 0 
L 2766 531 
Q 2569 213 2275 61 
Q 1981 -91 1556 -91 
Q 1019 -91 701 211 
Q 384 513 384 1019 
Q 384 1609 779 1909 
Q 1175 2209 1959 2209 
L 2766 2209 
L 2766 2266 
Q 2766 2663 2505 2880 
Q 2244 3097 1772 3097 
Q 1472 3097 1187 3025 
Q 903 2953 641 2809 
L 641 3341 
Q 956 3463 1253 3523 
Q 1550 3584 1831 3584 
Q 2591 3584 2966 3190 
Q 3341 2797 3341 1997 
z
" transform="scale(0.015625)"/>
       <path id="DejaVuSans-70" d="M 1159 525 
L 1159 -1331 
L 581 -1331 
L 581 3500 
L 1159 3500 
L 1159 2969 
Q 1341 3281 1617 3432 
Q 1894 3584 2278 3584 
Q 2916 3584 3314 3078 
Q 3713 2572 3713 1747 
Q 3713 922 3314 415 
Q 2916 -91 2278 -91 
Q 1894 -91 1617 61 
Q 1341 213 1159 525 
z
M 3116 1747 
Q 3116 2381 2855 2742 
Q 2594 3103 2138 3103 
Q 1681 3103 1420 2742 
Q 1159 2381 1159 1747 
Q 1159 1113 1420 752 
Q 1681 391 2138 391 
Q 2594 391 2855 752 
Q 3116 1113 3116 1747 
z
" transform="scale(0.015625)"/>
       <path id="DejaVuSans-6c" d="M 603 4863 
L 1178 4863 
L 1178 0 
L 603 0 
L 603 4863 
z
" transform="scale(0.015625)"/>
      </defs>
      <use xlink:href="#DejaVuSans-6e"/>
      <use xlink:href="#DejaVuSans-75" x="63.378906"/>
      <use xlink:href="#DejaVuSans-6d" x="126.757812"/>
      <use xlink:href="#DejaVuSans-62" x="224.169922"/>
      <use xlink:href="#DejaVuSans-65" x="287.646484"/>
      <use xlink:href="#DejaVuSans-72" x="349.169922"/>
      <use xlink:href="#DejaVuSans-20" x="390.283203"/>
      <use xlink:href="#DejaVuSans-6f" x="422.070312"/>
      <use xlink:href="#DejaVuSans-66" x="483.251953"/>
      <use xlink:href="#DejaVuSans-20" x="518.457031"/>
      <use xlink:href="#DejaVuSans-73" x="550.244141"/>
      <use xlink:href="#DejaVuSans-61" x="602.34375"/>
      <use xlink:href="#DejaVuSans-6d" x="663.623047"/>
      <use xlink:href="#DejaVuSans-70" x="761.035156"/>
      <use xlink:href="#DejaVuSans-6c" x="824.511719"/>
      <use xlink:href="#DejaVuSans-65" x="852.294922"/>
      <use xlink:href="#DejaVuSans-73" x="913.818359"/>
     </g>
    </g>
   </g>
   <g id="matplotlib.axis_2">
    <g id="ytick_1">
     <g id="line2d_13">
      <path d="M 64.1675 203.317173 
L 358.622894 203.317173 
" clip-path="url(#p09e24e4da8)" style="fill: none; stroke-dasharray: 6.4,1.6,1,1.6; stroke-dashoffset: 0; stroke: #808080; stroke-opacity: 0.2"/>
     </g>
     <g id="line2d_14">
      <defs>
       <path id="m6a42b202bf" d="M 0 0 
L -3.5 0 
" style="stroke: #000000; stroke-width: 0.8"/>
      </defs>
      <g>
       <use xlink:href="#m6a42b202bf" x="64.1675" y="203.317173" style="stroke: #000000; stroke-width: 0.8"/>
      </g>
     </g>
     <g id="text_8">
      <!-- 0.000 -->
      <g transform="translate(22.81375 207.876235) scale(0.12 -0.12)">
       <defs>
        <path id="DejaVuSans-2e" d="M 684 794 
L 1344 794 
L 1344 0 
L 684 0 
L 684 794 
z
" transform="scale(0.015625)"/>
       </defs>
       <use xlink:href="#DejaVuSans-30"/>
       <use xlink:href="#DejaVuSans-2e" x="63.623047"/>
       <use xlink:href="#DejaVuSans-30" x="95.410156"/>
       <use xlink:href="#DejaVuSans-30" x="159.033203"/>
       <use xlink:href="#DejaVuSans-30" x="222.65625"/>
      </g>
     </g>
    </g>
    <g id="ytick_2">
     <g id="line2d_15">
      <path d="M 64.1675 175.951728 
L 358.622894 175.951728 
" clip-path="url(#p09e24e4da8)" style="fill: none; stroke-dasharray: 6.4,1.6,1,1.6; stroke-dashoffset: 0; stroke: #808080; stroke-opacity: 0.2"/>
     </g>
     <g id="line2d_16">
      <g>
       <use xlink:href="#m6a42b202bf" x="64.1675" y="175.951728" style="stroke: #000000; stroke-width: 0.8"/>
      </g>
     </g>
     <g id="text_9">
      <!-- 0.001 -->
      <g transform="translate(22.81375 180.510791) scale(0.12 -0.12)">
       <use xlink:href="#DejaVuSans-30"/>
       <use xlink:href="#DejaVuSans-2e" x="63.623047"/>
       <use xlink:href="#DejaVuSans-30" x="95.410156"/>
       <use xlink:href="#DejaVuSans-30" x="159.033203"/>
       <use xlink:href="#DejaVuSans-31" x="222.65625"/>
      </g>
     </g>
    </g>
    <g id="ytick_3">
     <g id="line2d_17">
      <path d="M 64.1675 148.586284 
L 358.622894 148.586284 
" clip-path="url(#p09e24e4da8)" style="fill: none; stroke-dasharray: 6.4,1.6,1,1.6; stroke-dashoffset: 0; stroke: #808080; stroke-opacity: 0.2"/>
     </g>
     <g id="line2d_18">
      <g>
       <use xlink:href="#m6a42b202bf" x="64.1675" y="148.586284" style="stroke: #000000; stroke-width: 0.8"/>
      </g>
     </g>
     <g id="text_10">
      <!-- 0.002 -->
      <g transform="translate(22.81375 153.145347) scale(0.12 -0.12)">
       <use xlink:href="#DejaVuSans-30"/>
       <use xlink:href="#DejaVuSans-2e" x="63.623047"/>
       <use xlink:href="#DejaVuSans-30" x="95.410156"/>
       <use xlink:href="#DejaVuSans-30" x="159.033203"/>
       <use xlink:href="#DejaVuSans-32" x="222.65625"/>
      </g>
     </g>
    </g>
    <g id="ytick_4">
     <g id="line2d_19">
      <path d="M 64.1675 121.22084 
L 358.622894 121.22084 
" clip-path="url(#p09e24e4da8)" style="fill: none; stroke-dasharray: 6.4,1.6,1,1.6; stroke-dashoffset: 0; stroke: #808080; stroke-opacity: 0.2"/>
     </g>
     <g id="line2d_20">
      <g>
       <use xlink:href="#m6a42b202bf" x="64.1675" y="121.22084" style="stroke: #000000; stroke-width: 0.8"/>
      </g>
     </g>
     <g id="text_11">
      <!-- 0.003 -->
      <g transform="translate(22.81375 125.779902) scale(0.12 -0.12)">
       <defs>
        <path id="DejaVuSans-33" d="M 2597 2516 
Q 3050 2419 3304 2112 
Q 3559 1806 3559 1356 
Q 3559 666 3084 287 
Q 2609 -91 1734 -91 
Q 1441 -91 1130 -33 
Q 819 25 488 141 
L 488 750 
Q 750 597 1062 519 
Q 1375 441 1716 441 
Q 2309 441 2620 675 
Q 2931 909 2931 1356 
Q 2931 1769 2642 2001 
Q 2353 2234 1838 2234 
L 1294 2234 
L 1294 2753 
L 1863 2753 
Q 2328 2753 2575 2939 
Q 2822 3125 2822 3475 
Q 2822 3834 2567 4026 
Q 2313 4219 1838 4219 
Q 1578 4219 1281 4162 
Q 984 4106 628 3988 
L 628 4550 
Q 988 4650 1302 4700 
Q 1616 4750 1894 4750 
Q 2613 4750 3031 4423 
Q 3450 4097 3450 3541 
Q 3450 3153 3228 2886 
Q 3006 2619 2597 2516 
z
" transform="scale(0.015625)"/>
       </defs>
       <use xlink:href="#DejaVuSans-30"/>
       <use xlink:href="#DejaVuSans-2e" x="63.623047"/>
       <use xlink:href="#DejaVuSans-30" x="95.410156"/>
       <use xlink:href="#DejaVuSans-30" x="159.033203"/>
       <use xlink:href="#DejaVuSans-33" x="222.65625"/>
      </g>
     </g>
    </g>
    <g id="ytick_5">
     <g id="line2d_21">
      <path d="M 64.1675 93.855395 
L 358.622894 93.855395 
" clip-path="url(#p09e24e4da8)" style="fill: none; stroke-dasharray: 6.4,1.6,1,1.6; stroke-dashoffset: 0; stroke: #808080; stroke-opacity: 0.2"/>
     </g>
     <g id="line2d_22">
      <g>
       <use xlink:href="#m6a42b202bf" x="64.1675" y="93.855395" style="stroke: #000000; stroke-width: 0.8"/>
      </g>
     </g>
     <g id="text_12">
      <!-- 0.004 -->
      <g transform="translate(22.81375 98.414458) scale(0.12 -0.12)">
       <use xlink:href="#DejaVuSans-30"/>
       <use xlink:href="#DejaVuSans-2e" x="63.623047"/>
       <use xlink:href="#DejaVuSans-30" x="95.410156"/>
       <use xlink:href="#DejaVuSans-30" x="159.033203"/>
       <use xlink:href="#DejaVuSans-34" x="222.65625"/>
      </g>
     </g>
    </g>
    <g id="ytick_6">
     <g id="line2d_23">
      <path d="M 64.1675 66.489951 
L 358.622894 66.489951 
" clip-path="url(#p09e24e4da8)" style="fill: none; stroke-dasharray: 6.4,1.6,1,1.6; stroke-dashoffset: 0; stroke: #808080; stroke-opacity: 0.2"/>
     </g>
     <g id="line2d_24">
      <g>
       <use xlink:href="#m6a42b202bf" x="64.1675" y="66.489951" style="stroke: #000000; stroke-width: 0.8"/>
      </g>
     </g>
     <g id="text_13">
      <!-- 0.005 -->
      <g transform="translate(22.81375 71.049014) scale(0.12 -0.12)">
       <defs>
        <path id="DejaVuSans-35" d="M 691 4666 
L 3169 4666 
L 3169 4134 
L 1269 4134 
L 1269 2991 
Q 1406 3038 1543 3061 
Q 1681 3084 1819 3084 
Q 2600 3084 3056 2656 
Q 3513 2228 3513 1497 
Q 3513 744 3044 326 
Q 2575 -91 1722 -91 
Q 1428 -91 1123 -41 
Q 819 9 494 109 
L 494 744 
Q 775 591 1075 516 
Q 1375 441 1709 441 
Q 2250 441 2565 725 
Q 2881 1009 2881 1497 
Q 2881 1984 2565 2268 
Q 2250 2553 1709 2553 
Q 1456 2553 1204 2497 
Q 953 2441 691 2322 
L 691 4666 
z
" transform="scale(0.015625)"/>
       </defs>
       <use xlink:href="#DejaVuSans-30"/>
       <use xlink:href="#DejaVuSans-2e" x="63.623047"/>
       <use xlink:href="#DejaVuSans-30" x="95.410156"/>
       <use xlink:href="#DejaVuSans-30" x="159.033203"/>
       <use xlink:href="#DejaVuSans-35" x="222.65625"/>
      </g>
     </g>
    </g>
    <g id="ytick_7">
     <g id="line2d_25">
      <path d="M 64.1675 39.124507 
L 358.622894 39.124507 
" clip-path="url(#p09e24e4da8)" style="fill: none; stroke-dasharray: 6.4,1.6,1,1.6; stroke-dashoffset: 0; stroke: #808080; stroke-opacity: 0.2"/>
     </g>
     <g id="line2d_26">
      <g>
       <use xlink:href="#m6a42b202bf" x="64.1675" y="39.124507" style="stroke: #000000; stroke-width: 0.8"/>
      </g>
     </g>
     <g id="text_14">
      <!-- 0.006 -->
      <g transform="translate(22.81375 43.683569) scale(0.12 -0.12)">
       <use xlink:href="#DejaVuSans-30"/>
       <use xlink:href="#DejaVuSans-2e" x="63.623047"/>
       <use xlink:href="#DejaVuSans-30" x="95.410156"/>
       <use xlink:href="#DejaVuSans-30" x="159.033203"/>
       <use xlink:href="#DejaVuSans-36" x="222.65625"/>
      </g>
     </g>
    </g>
    <g id="ytick_8">
     <g id="line2d_27">
      <path d="M 64.1675 11.759063 
L 358.622894 11.759063 
" clip-path="url(#p09e24e4da8)" style="fill: none; stroke-dasharray: 6.4,1.6,1,1.6; stroke-dashoffset: 0; stroke: #808080; stroke-opacity: 0.2"/>
     </g>
     <g id="line2d_28">
      <g>
       <use xlink:href="#m6a42b202bf" x="64.1675" y="11.759063" style="stroke: #000000; stroke-width: 0.8"/>
      </g>
     </g>
     <g id="text_15">
      <!-- 0.007 -->
      <g transform="translate(22.81375 16.318125) scale(0.12 -0.12)">
       <defs>
        <path id="DejaVuSans-37" d="M 525 4666 
L 3525 4666 
L 3525 4397 
L 1831 0 
L 1172 0 
L 2766 4134 
L 525 4134 
L 525 4666 
z
" transform="scale(0.015625)"/>
       </defs>
       <use xlink:href="#DejaVuSans-30"/>
       <use xlink:href="#DejaVuSans-2e" x="63.623047"/>
       <use xlink:href="#DejaVuSans-30" x="95.410156"/>
       <use xlink:href="#DejaVuSans-30" x="159.033203"/>
       <use xlink:href="#DejaVuSans-37" x="222.65625"/>
      </g>
     </g>
    </g>
    <g id="text_16">
     <!-- $p_f$ -->
     <g transform="translate(16.29375 112.998118) rotate(-90) scale(0.12 -0.12)">
      <defs>
       <path id="DejaVuSans-Oblique-70" d="M 3175 2156 
Q 3175 2616 2975 2859 
Q 2775 3103 2400 3103 
Q 2144 3103 1911 2972 
Q 1678 2841 1497 2591 
Q 1319 2344 1212 1994 
Q 1106 1644 1106 1300 
Q 1106 863 1306 627 
Q 1506 391 1875 391 
Q 2147 391 2380 519 
Q 2613 647 2778 891 
Q 2956 1147 3065 1494 
Q 3175 1841 3175 2156 
z
M 1394 2969 
Q 1625 3272 1939 3428 
Q 2253 3584 2638 3584 
Q 3175 3584 3472 3232 
Q 3769 2881 3769 2247 
Q 3769 1728 3584 1258 
Q 3400 788 3053 416 
Q 2822 169 2531 39 
Q 2241 -91 1919 -91 
Q 1547 -91 1294 64 
Q 1041 219 916 525 
L 556 -1331 
L -19 -1331 
L 922 3500 
L 1497 3500 
L 1394 2969 
z
" transform="scale(0.015625)"/>
       <path id="DejaVuSans-Oblique-66" d="M 3059 4863 
L 2969 4384 
L 2419 4384 
Q 2106 4384 1964 4261 
Q 1822 4138 1753 3809 
L 1691 3500 
L 2638 3500 
L 2553 3053 
L 1606 3053 
L 1013 0 
L 434 0 
L 1031 3053 
L 481 3053 
L 563 3500 
L 1113 3500 
L 1159 3744 
Q 1278 4363 1576 4613 
Q 1875 4863 2516 4863 
L 3059 4863 
z
" transform="scale(0.015625)"/>
      </defs>
      <use xlink:href="#DejaVuSans-Oblique-70"/>
      <use xlink:href="#DejaVuSans-Oblique-66" transform="translate(63.476562 -16.40625) scale(0.7)"/>
     </g>
    </g>
   </g>
   <g id="line2d_29">
    <path d="M 67.112054 121.22084 
L 70.056608 121.22084 
L 73.001162 139.464469 
L 75.945716 148.586284 
L 78.89027 159.532462 
L 81.834824 157.708099 
L 84.779378 160.314332 
L 87.723931 162.269006 
L 90.668485 160.748704 
L 93.613039 159.532462 
L 96.557593 163.51289 
L 99.502147 164.54946 
L 102.446701 165.426558 
L 105.391255 166.178355 
L 108.335809 168.654277 
L 111.280363 169.110367 
L 114.224917 169.5128 
L 117.169471 165.309611 
L 120.114025 165.869723 
L 123.058579 167.742095 
L 126.003133 165.526797 
L 128.947687 162.269006 
L 131.892241 161.674105 
L 134.836794 162.269006 
L 137.781348 162.816315 
L 140.725902 164.37404 
L 143.670456 163.789309 
L 146.61501 162.269006 
L 149.559564 161.797188 
L 152.504118 163.181188 
L 155.448672 161.827628 
L 158.393226 162.269006 
L 161.33778 163.51289 
L 164.282334 164.683604 
L 167.226888 164.223681 
L 170.171442 164.54946 
L 173.115996 164.857629 
L 176.06055 165.149579 
L 179.005104 165.426558 
L 181.949657 164.321415 
L 184.894211 163.270181 
L 187.838765 162.269006 
L 190.783319 161.314398 
L 193.727873 160.403181 
L 196.672427 160.140583 
L 199.616981 159.889402 
L 202.561535 160.231154 
L 205.506089 159.418439 
L 208.450643 159.755853 
L 211.395197 157.890535 
L 214.339751 158.244676 
L 217.284305 158.585196 
L 220.228859 158.396538 
L 223.173413 158.721634 
L 226.117967 159.532462 
L 229.06252 158.848326 
L 232.007074 159.148385 
L 234.951628 158.96628 
L 237.896182 159.254169 
L 240.840736 159.076371 
L 243.78529 158.455789 
L 246.729844 157.855225 
L 249.674398 158.576843 
L 252.618952 159.275911 
L 255.563506 159.532462 
L 258.50806 158.951983 
L 261.452614 159.61415 
L 264.397168 159.049542 
L 267.341722 159.294501 
L 270.286276 159.532462 
L 273.23083 159.37829 
L 276.175383 159.988553 
L 279.119937 159.832357 
L 282.064491 159.31058 
L 285.009045 159.167589 
L 287.953599 159.748505 
L 290.898153 158.537355 
L 293.842707 158.760616 
L 296.787261 158.631827 
L 299.731815 158.506258 
L 302.676369 159.059479 
L 305.620923 159.265482 
L 308.565477 158.807113 
L 311.510031 159.336994 
L 314.454585 158.888569 
L 317.399139 159.086978 
L 320.343693 158.96628 
L 323.288246 159.470268 
L 326.2328 159.655453 
L 329.177354 159.532462 
L 332.121908 159.412174 
L 335.066462 158.997051 
L 338.011016 158.590855 
L 340.95557 158.484424 
L 343.900124 158.66829 
L 346.844678 158.563269 
L 349.789232 158.460413 
L 352.733786 158.918136 
L 355.67834 158.813773 
L 358.622894 159.258807 
" clip-path="url(#p09e24e4da8)" style="fill: none; stroke: #000000; stroke-width: 3; stroke-linecap: square"/>
   </g>
   <g id="line2d_30">
    <path d="M 67.112054 214.139416 
L 70.056608 186.867924 
L 73.001162 186.738082 
L 75.945716 186.490422 
L 78.89027 189.859254 
L 81.834824 185.960864 
L 84.779378 185.713151 
L 87.723931 185.481304 
L 90.668485 183.033907 
L 93.613039 180.973073 
L 96.557593 183.005471 
L 99.502147 182.967689 
L 102.446701 182.920986 
L 105.391255 182.868401 
L 108.335809 184.232231 
L 111.280363 184.094114 
L 114.224917 183.963425 
L 117.169471 180.199366 
L 120.114025 180.255238 
L 123.058579 181.408741 
L 126.003133 179.272457 
L 128.947687 176.264644 
L 131.892241 175.460744 
L 134.836794 175.668722 
L 137.781348 175.857575 
L 140.725902 176.914038 
L 143.670456 176.18677 
L 146.61501 174.674606 
L 149.559564 174.056747 
L 152.504118 175.032371 
L 155.448672 173.680738 
L 158.393226 173.873294 
L 161.33778 174.76577 
L 164.282334 175.605735 
L 167.226888 175.052431 
L 170.171442 175.182219 
L 173.115996 175.303995 
L 176.06055 175.41842 
L 179.005104 175.526085 
L 181.949657 174.43807 
L 184.894211 173.396287 
L 187.838765 172.39793 
L 190.783319 171.440396 
L 193.727873 170.521271 
L 196.672427 170.176126 
L 199.616981 169.84404 
L 202.561535 170.040549 
L 205.506089 169.216081 
L 208.450643 169.415718 
L 211.395197 167.655568 
L 214.339751 167.875794 
L 217.284305 168.087212 
L 220.228859 167.828273 
L 223.173413 168.031807 
L 226.117967 168.67349 
L 229.06252 167.97775 
L 232.007074 168.166836 
L 234.951628 167.925024 
L 237.896182 168.107833 
L 240.840736 167.873607 
L 243.78529 167.241495 
L 246.729844 166.627827 
L 249.674398 167.210308 
L 252.618952 167.774583 
L 255.563506 167.940944 
L 258.50806 167.351561 
L 261.452614 167.888458 
L 264.397168 167.31558 
L 267.341722 167.47772 
L 270.286276 167.635063 
L 273.23083 167.437755 
L 276.175383 167.936166 
L 279.119937 167.739536 
L 282.064491 167.21105 
L 285.009045 167.027929 
L 287.953599 167.505499 
L 290.898153 166.350019 
L 293.842707 166.503692 
L 296.787261 166.336831 
L 299.731815 166.173685 
L 302.676369 166.632321 
L 305.620923 166.774496 
L 308.565477 166.30942 
L 311.510031 166.750059 
L 314.454585 166.295309 
L 317.399139 166.434094 
L 320.343693 166.280992 
L 323.288246 166.701923 
L 326.2328 166.831187 
L 329.177354 166.678246 
L 332.121908 166.528325 
L 335.066462 166.107745 
L 338.011016 165.695498 
L 340.95557 165.559562 
L 343.900124 165.691668 
L 346.844678 165.558169 
L 349.789232 165.427141 
L 352.733786 165.813831 
L 355.67834 165.682598 
L 358.622894 166.058998 
" clip-path="url(#p09e24e4da8)" style="fill: none; stroke-dasharray: 7.4,3.2; stroke-dashoffset: 0; stroke: #0000ff; stroke-width: 2"/>
   </g>
   <g id="line2d_31">
    <path d="M 67.112054 28.302264 
L 70.056608 55.573756 
L 73.001162 92.190856 
L 75.945716 110.682146 
L 78.89027 129.20567 
L 81.834824 129.455334 
L 84.779378 134.915512 
L 87.723931 139.056709 
L 90.668485 138.4635 
L 93.613039 138.091851 
L 96.557593 144.020309 
L 99.502147 146.131231 
L 102.446701 147.932129 
L 105.391255 149.48831 
L 108.335809 153.076322 
L 111.280363 154.12662 
L 114.224917 155.062176 
L 117.169471 150.419856 
L 120.114025 151.484208 
L 123.058579 154.075449 
L 126.003133 151.781137 
L 128.947687 148.273369 
L 131.892241 147.887467 
L 134.836794 148.86929 
L 137.781348 149.775055 
L 140.725902 151.834043 
L 143.670456 151.391847 
L 146.61501 149.863406 
L 149.559564 149.53763 
L 152.504118 151.330004 
L 155.448672 149.974518 
L 158.393226 150.664719 
L 161.33778 152.26001 
L 164.282334 153.761474 
L 167.226888 153.39493 
L 170.171442 153.916701 
L 173.115996 154.411264 
L 176.06055 154.880739 
L 179.005104 155.32703 
L 181.949657 154.204759 
L 184.894211 153.144075 
L 187.838765 152.140083 
L 190.783319 151.1884 
L 193.727873 150.28509 
L 196.672427 150.10504 
L 199.616981 149.934765 
L 202.561535 150.421759 
L 205.506089 149.620797 
L 208.450643 150.095989 
L 211.395197 148.125502 
L 214.339751 148.613559 
L 217.284305 149.08318 
L 220.228859 148.964802 
L 223.173413 149.41146 
L 226.117967 150.391434 
L 229.06252 149.718902 
L 232.007074 150.129935 
L 234.951628 150.007536 
L 237.896182 150.400505 
L 240.840736 150.279135 
L 243.78529 149.670083 
L 246.729844 149.082622 
L 249.674398 149.943378 
L 252.618952 150.777238 
L 255.563506 151.123979 
L 258.50806 150.552405 
L 261.452614 151.339841 
L 264.397168 150.783504 
L 267.341722 151.111283 
L 270.286276 151.429861 
L 273.23083 151.318826 
L 276.175383 152.040939 
L 279.119937 151.925178 
L 282.064491 151.41011 
L 285.009045 151.30725 
L 287.953599 151.991511 
L 290.898153 150.72469 
L 293.842707 151.01754 
L 296.787261 150.926823 
L 299.731815 150.83883 
L 302.676369 151.486636 
L 305.620923 151.756468 
L 308.565477 151.304805 
L 311.510031 151.92393 
L 314.454585 151.481829 
L 317.399139 151.739861 
L 320.343693 151.651568 
L 323.288246 152.238612 
L 326.2328 152.479718 
L 329.177354 152.386678 
L 332.121908 152.296024 
L 335.066462 151.886357 
L 338.011016 151.486213 
L 340.95557 151.409285 
L 343.900124 151.644911 
L 346.844678 151.568369 
L 349.789232 151.493686 
L 352.733786 152.02244 
L 355.67834 151.944949 
L 358.622894 152.458617 
" clip-path="url(#p09e24e4da8)" style="fill: none; stroke-dasharray: 7.4,3.2; stroke-dashoffset: 0; stroke: #0000ff; stroke-width: 2"/>
   </g>
   <g id="patch_3">
    <path d="M 64.1675 203.317173 
L 64.1675 11.759063 
" style="fill: none; stroke: #000000; stroke-width: 0.8; stroke-linejoin: miter; stroke-linecap: square"/>
   </g>
   <g id="patch_4">
    <path d="M 358.622894 203.317173 
L 358.622894 11.759063 
" style="fill: none; stroke: #000000; stroke-width: 0.8; stroke-linejoin: miter; stroke-linecap: square"/>
   </g>
   <g id="patch_5">
    <path d="M 64.1675 203.317173 
L 358.622894 203.317173 
" style="fill: none; stroke: #000000; stroke-width: 0.8; stroke-linejoin: miter; stroke-linecap: square"/>
   </g>
   <g id="patch_6">
    <path d="M 64.1675 11.759063 
L 358.622894 11.759063 
" style="fill: none; stroke: #000000; stroke-width: 0.8; stroke-linejoin: miter; stroke-linecap: square"/>
   </g>
   <g id="legend_1">
    <g id="patch_7">
     <path d="M 264.188987 58.59 
L 352.322894 58.59 
Q 354.122894 58.59 354.122894 56.79 
L 354.122894 18.059063 
Q 354.122894 16.259063 352.322894 16.259063 
L 264.188987 16.259063 
Q 262.388987 16.259063 262.388987 18.059063 
L 262.388987 56.79 
Q 262.388987 58.59 264.188987 58.59 
z
" style="fill: #ffffff; opacity: 0.8; stroke: #cccccc; stroke-linejoin: miter"/>
    </g>
    <g id="line2d_32">
     <path d="M 265.988987 23.547656 
L 274.988987 23.547656 
L 283.988987 23.547656 
" style="fill: none; stroke: #000000; stroke-width: 3; stroke-linecap: square"/>
    </g>
    <g id="text_17">
     <!-- mean -->
     <g transform="translate(291.188987 26.697656) scale(0.09 -0.09)">
      <use xlink:href="#DejaVuSans-6d"/>
      <use xlink:href="#DejaVuSans-65" x="97.412109"/>
      <use xlink:href="#DejaVuSans-61" x="158.935547"/>
      <use xlink:href="#DejaVuSans-6e" x="220.214844"/>
     </g>
    </g>
    <g id="line2d_33">
     <path d="M 265.988987 36.757969 
L 274.988987 36.757969 
L 283.988987 36.757969 
" style="fill: none; stroke-dasharray: 7.4,3.2; stroke-dashoffset: 0; stroke: #0000ff; stroke-width: 2"/>
    </g>
    <g id="text_18">
     <!-- lower ci limit -->
     <g transform="translate(291.188987 39.907969) scale(0.09 -0.09)">
      <defs>
       <path id="DejaVuSans-77" d="M 269 3500 
L 844 3500 
L 1563 769 
L 2278 3500 
L 2956 3500 
L 3675 769 
L 4391 3500 
L 4966 3500 
L 4050 0 
L 3372 0 
L 2619 2869 
L 1863 0 
L 1184 0 
L 269 3500 
z
" transform="scale(0.015625)"/>
       <path id="DejaVuSans-63" d="M 3122 3366 
L 3122 2828 
Q 2878 2963 2633 3030 
Q 2388 3097 2138 3097 
Q 1578 3097 1268 2742 
Q 959 2388 959 1747 
Q 959 1106 1268 751 
Q 1578 397 2138 397 
Q 2388 397 2633 464 
Q 2878 531 3122 666 
L 3122 134 
Q 2881 22 2623 -34 
Q 2366 -91 2075 -91 
Q 1284 -91 818 406 
Q 353 903 353 1747 
Q 353 2603 823 3093 
Q 1294 3584 2113 3584 
Q 2378 3584 2631 3529 
Q 2884 3475 3122 3366 
z
" transform="scale(0.015625)"/>
       <path id="DejaVuSans-69" d="M 603 3500 
L 1178 3500 
L 1178 0 
L 603 0 
L 603 3500 
z
M 603 4863 
L 1178 4863 
L 1178 4134 
L 603 4134 
L 603 4863 
z
" transform="scale(0.015625)"/>
       <path id="DejaVuSans-74" d="M 1172 4494 
L 1172 3500 
L 2356 3500 
L 2356 3053 
L 1172 3053 
L 1172 1153 
Q 1172 725 1289 603 
Q 1406 481 1766 481 
L 2356 481 
L 2356 0 
L 1766 0 
Q 1100 0 847 248 
Q 594 497 594 1153 
L 594 3053 
L 172 3053 
L 172 3500 
L 594 3500 
L 594 4494 
L 1172 4494 
z
" transform="scale(0.015625)"/>
      </defs>
      <use xlink:href="#DejaVuSans-6c"/>
      <use xlink:href="#DejaVuSans-6f" x="27.783203"/>
      <use xlink:href="#DejaVuSans-77" x="88.964844"/>
      <use xlink:href="#DejaVuSans-65" x="170.751953"/>
      <use xlink:href="#DejaVuSans-72" x="232.275391"/>
      <use xlink:href="#DejaVuSans-20" x="273.388672"/>
      <use xlink:href="#DejaVuSans-63" x="305.175781"/>
      <use xlink:href="#DejaVuSans-69" x="360.15625"/>
      <use xlink:href="#DejaVuSans-20" x="387.939453"/>
      <use xlink:href="#DejaVuSans-6c" x="419.726562"/>
      <use xlink:href="#DejaVuSans-69" x="447.509766"/>
      <use xlink:href="#DejaVuSans-6d" x="475.292969"/>
      <use xlink:href="#DejaVuSans-69" x="572.705078"/>
      <use xlink:href="#DejaVuSans-74" x="600.488281"/>
     </g>
    </g>
    <g id="line2d_34">
     <path d="M 265.988987 49.968281 
L 274.988987 49.968281 
L 283.988987 49.968281 
" style="fill: none; stroke-dasharray: 7.4,3.2; stroke-dashoffset: 0; stroke: #0000ff; stroke-width: 2"/>
    </g>
    <g id="text_19">
     <!-- upper ci limit -->
     <g transform="translate(291.188987 53.118281) scale(0.09 -0.09)">
      <use xlink:href="#DejaVuSans-75"/>
      <use xlink:href="#DejaVuSans-70" x="63.378906"/>
      <use xlink:href="#DejaVuSans-70" x="126.855469"/>
      <use xlink:href="#DejaVuSans-65" x="190.332031"/>
      <use xlink:href="#DejaVuSans-72" x="251.855469"/>
      <use xlink:href="#DejaVuSans-20" x="292.96875"/>
      <use xlink:href="#DejaVuSans-63" x="324.755859"/>
      <use xlink:href="#DejaVuSans-69" x="379.736328"/>
      <use xlink:href="#DejaVuSans-20" x="407.519531"/>
      <use xlink:href="#DejaVuSans-6c" x="439.306641"/>
      <use xlink:href="#DejaVuSans-69" x="467.089844"/>
      <use xlink:href="#DejaVuSans-6d" x="494.873047"/>
      <use xlink:href="#DejaVuSans-69" x="592.285156"/>
      <use xlink:href="#DejaVuSans-74" x="620.068359"/>
     </g>
    </g>
   </g>
  </g>
 </g>
 <defs>
  <clipPath id="p09e24e4da8">
   <rect x="64.1675" y="11.759063" width="294.455394" height="191.55811"/>
  </clipPath>
 </defs>
</svg>
